<mxfile host="app.diagrams.net" modified="2024-06-08T19:47:35.395Z" agent="Mozilla/5.0 (Windows NT 10.0; Win64; x64) AppleWebKit/537.36 (KHTML, like Gecko) Chrome/125.0.0.0 Safari/537.36" etag="SCDWpXszPfygB5cvXLdj" version="24.5.2" type="github">
  <diagram name="Page-1" id="hEqjnrV1hhbZaAEsEmEU">
    <mxGraphModel dx="1684" dy="893" grid="1" gridSize="10" guides="1" tooltips="1" connect="1" arrows="1" fold="1" page="1" pageScale="1" pageWidth="850" pageHeight="1100" math="0" shadow="0">
      <root>
        <mxCell id="0" />
        <mxCell id="1" parent="0" />
        <mxCell id="UKuKk4aacnZ8U92alZh_-1" value="Text" style="rounded=0;whiteSpace=wrap;html=1;fillColor=#FF904F;" vertex="1" parent="1">
          <mxGeometry x="70" y="440" width="120" height="60" as="geometry" />
        </mxCell>
        <mxCell id="UKuKk4aacnZ8U92alZh_-3" value="Byte-Pair Encoder (BPE)" style="rounded=0;whiteSpace=wrap;html=1;fillColor=#FFFF66;" vertex="1" parent="1">
          <mxGeometry x="320" y="440" width="120" height="60" as="geometry" />
        </mxCell>
        <mxCell id="UKuKk4aacnZ8U92alZh_-6" value="Tokens" style="rounded=0;whiteSpace=wrap;html=1;fillColor=#4FC4FF;" vertex="1" parent="1">
          <mxGeometry x="550" y="440" width="120" height="60" as="geometry" />
        </mxCell>
        <mxCell id="UKuKk4aacnZ8U92alZh_-8" value="" style="shape=flexArrow;endArrow=classic;html=1;rounded=0;exitX=1;exitY=0.5;exitDx=0;exitDy=0;entryX=0;entryY=0.5;entryDx=0;entryDy=0;fillColor=#0FFF4F;" edge="1" parent="1" source="UKuKk4aacnZ8U92alZh_-3" target="UKuKk4aacnZ8U92alZh_-6">
          <mxGeometry width="50" height="50" relative="1" as="geometry">
            <mxPoint x="480" y="570" as="sourcePoint" />
            <mxPoint x="530" y="520" as="targetPoint" />
          </mxGeometry>
        </mxCell>
        <mxCell id="UKuKk4aacnZ8U92alZh_-10" value="" style="shape=flexArrow;endArrow=classic;html=1;rounded=0;entryX=0;entryY=0.5;entryDx=0;entryDy=0;fillColor=#0FFF4F;" edge="1" parent="1" source="UKuKk4aacnZ8U92alZh_-1" target="UKuKk4aacnZ8U92alZh_-3">
          <mxGeometry width="50" height="50" relative="1" as="geometry">
            <mxPoint x="450" y="480" as="sourcePoint" />
            <mxPoint x="560" y="480" as="targetPoint" />
          </mxGeometry>
        </mxCell>
        <mxCell id="UKuKk4aacnZ8U92alZh_-14" style="edgeStyle=orthogonalEdgeStyle;rounded=0;orthogonalLoop=1;jettySize=auto;html=1;exitX=0.5;exitY=1;exitDx=0;exitDy=0;entryX=0.5;entryY=0;entryDx=0;entryDy=0;" edge="1" parent="1" source="UKuKk4aacnZ8U92alZh_-12" target="UKuKk4aacnZ8U92alZh_-3">
          <mxGeometry relative="1" as="geometry" />
        </mxCell>
        <mxCell id="UKuKk4aacnZ8U92alZh_-12" value="Encoding &lt;br&gt;Process" style="rounded=1;whiteSpace=wrap;html=1;fillColor=#FFFF66;" vertex="1" parent="1">
          <mxGeometry x="320" y="330" width="120" height="60" as="geometry" />
        </mxCell>
      </root>
    </mxGraphModel>
  </diagram>
</mxfile>
